<?xml version="1.0" encoding="utf-8"?>
<!-- Generator: Adobe Illustrator 26.0.1, SVG Export Plug-In . SVG Version: 6.00 Build 0)  -->
<svg version="1.1" xmlns="http://www.w3.org/2000/svg" xmlns:xlink="http://www.w3.org/1999/xlink" x="0px" y="0px"
	 viewBox="0 0 155 47" style="enable-background:new 0 0 155 47;" xml:space="preserve">
<style type="text/css">
	.st0{display:none;}
	.st1{display:inline;}
	.st2{clip-path:url(#SVGID_00000061432394470262805370000004228251807796751267_);}
	.st3{fill:#377DFF;}
	.st4{opacity:0.65;fill:#377DFF;enable-background:new    ;}
	.st5{opacity:0.5;fill:#00DFFC;enable-background:new    ;}
	.st6{opacity:0.7;fill:#377DFF;enable-background:new    ;}
	.st7{fill:#FFFFFF;}
	.st8{fill:none;}
	.st9{fill:#0D3E62;}
	.st10{font-family:'Helvetica';}
	.st11{font-size:22px;}
	.st12{font-family:'Helvetica-BoldOblique';}
	.st13{fill:#F1934E;}
	.st14{font-family:'TRT-Medium';}
	.st15{font-size:21px;}
</style>
<g id="katman_1" class="st0">
	<g class="st1">
		<defs>
			<rect id="SVGID_1_" y="0" width="154.9" height="46.1"/>
		</defs>
		<clipPath id="SVGID_00000015344795584465689290000012156614180021142203_">
			<use xlink:href="#SVGID_1_"  style="overflow:visible;"/>
		</clipPath>
		<g style="clip-path:url(#SVGID_00000015344795584465689290000012156614180021142203_);">
			<path class="st3" d="M58.9,38.2V10h17.9v5.2H65.6v6.1H74v5.2h-8.4v11.7H58.9L58.9,38.2z"/>
			<path class="st3" d="M86.2,15.8V20c1.6-2.9,3.7-4.4,6.3-4.4v7h-1.6c-1.5,0-2.7,0.4-3.5,1.1c-0.8,0.8-1.2,2.1-1.2,3.9v10.6h-6.7
				V15.8H86.2z"/>
			<path class="st3" d="M95.9,35.3c-2.2-2.1-3.3-4.9-3.3-8.4s1.1-6.2,3.3-8.3c2.2-2.1,4.9-3.1,8.1-3.1s5.9,1,8.1,3.1
				c2.2,2.1,3.3,4.8,3.3,8.3s-1.1,6.2-3.3,8.4c-2.2,2.2-4.9,3.2-8.1,3.2S98.1,37.4,95.9,35.3z M107.3,31.2c0.9-1,1.3-2.4,1.3-4.2
				s-0.5-3.2-1.4-4.2c-0.9-1-2-1.4-3.3-1.4c-1.3,0-2.3,0.5-3.2,1.4c-0.9,1-1.4,2.3-1.4,4.2s0.5,3.2,1.4,4.2c0.9,1,2,1.4,3.3,1.4
				S106.4,32.1,107.3,31.2z"/>
			<path class="st3" d="M124.5,15.8v3.3c1.4-2.4,3.6-3.5,6.6-3.5c2.5,0,4.5,0.9,6.1,2.6c1.6,1.7,2.3,4,2.3,7v13.1h-6.7V26
				c0-1.4-0.4-2.6-1.1-3.4c-0.7-0.8-1.8-1.2-3.1-1.2c-1.3,0-2.3,0.4-3.1,1.2c-0.7,0.8-1.1,1.9-1.1,3.4v12.2h-6.7V15.8H124.5z"/>
			<path class="st3" d="M152.5,32.4h2.4v5.8h-3.4c-2.5,0-4.4-0.6-5.7-1.7s-2-3-2-5.7v-9.3h-2v-5.7h2v-5.5h6.7v5.5h4.4v5.7h-4.4v9.3
				C150.5,31.8,151.2,32.4,152.5,32.4z"/>
			<path class="st4" d="M23,41.1c-9.9,0-18-8-18-18c0-9.9,8-18,18-18h11.3c3.7,0,6.6,3,6.6,6.6v11.4C41,33,32.9,41.1,23,41.1z"/>
			<path class="st5" d="M28,36c-9.9,0-18-8-18-18c0-9.9,8-18,18-18h11.3C43,0.1,46,3.1,46,6.7v11.4C46,28,38,36,28,36z"/>
			<path class="st6" d="M18,46.1c-10,0-18-8-18-18c0-9.9,8-18,18-18h11.3c3.7,0,6.6,3,6.6,6.6v11.4C35.9,38.1,27.9,46.1,18,46.1z"/>
			<path class="st7" d="M17.4,34.1V18.4h10.2v2.9h-6.4v3.4H26v2.9h-4.8v6.5H17.4L17.4,34.1z"/>
		</g>
	</g>
</g>
<g id="katman_2">
	<rect x="17.5" y="14.3" class="st8" width="134" height="21.8"/>
	<text transform="matrix(1 0 0 1 18.5338 30.1702)"><tspan x="0" y="0" class="st9 st10 st11">Campus</tspan><tspan x="81.9" y="0" class="st9 st12 st11">Flow</tspan></text>
	<rect x="1.6" y="14.3" class="st8" width="36.5" height="29.6"/>
	<text transform="matrix(1 0 0 1 6.4739 29.8762)" class="st13 st14 st15">&gt;_</text>
</g>
</svg>
